<svg xmlns="http://www.w3.org/2000/svg" preserveAspectRatio="xMidYMid" width="13.5" height="13.5" viewBox="0 0 27 27">
    <defs><style>.cls-1 { fill: #c20000}</style></defs>
    <path d="M17.383,13.932 C17.137,13.685 17.137,13.315 17.383,13.068 L26.630,3.822 C26.877,3.576 27.000,3.206 27.000,2.959 C27.000,2.712 26.877,2.342 26.630,2.096 L24.904,0.370 C24.657,0.124 24.288,0.000 24.041,0.000 C23.671,0.000 23.425,0.124 23.178,0.370 L13.931,9.616 C13.685,9.863 13.315,9.863 13.068,9.616 L3.822,0.370 C3.575,0.124 3.205,0.000 2.959,0.000 C2.712,0.000 2.342,0.124 2.096,0.370 L0.370,2.096 C0.123,2.342 -0.000,2.712 -0.000,2.959 C-0.000,3.206 0.123,3.576 0.370,3.822 L9.616,13.068 C9.863,13.315 9.863,13.685 9.616,13.932 L0.370,23.178 C0.123,23.425 -0.000,23.795 -0.000,24.041 C-0.000,24.288 0.123,24.657 0.370,24.904 L2.096,26.630 C2.342,26.877 2.712,27.000 2.959,27.000 C3.205,27.000 3.575,26.877 3.822,26.630 L13.068,17.384 C13.315,17.137 13.685,17.137 13.931,17.384 L23.178,26.630 C23.425,26.877 23.794,27.000 24.041,27.000 C24.288,27.000 24.657,26.877 24.904,26.630 L26.630,24.904 C26.877,24.657 27.000,24.288 27.000,24.041 C27.000,23.795 26.877,23.425 26.630,23.178 L17.383,13.932 Z" class="cls-1"/>
</svg>
